<svg xmlns="http://www.w3.org/2000/svg" width="860" height="520">
  <defs><marker id="arr" markerWidth="8" markerHeight="8" refX="6" refY="3" orient="auto"><path d="M0,0 L0,6 L8,3 z" fill="#6b7280"/></marker><marker id="arr2" markerWidth="8" markerHeight="8" refX="6" refY="3" orient="auto"><path d="M0,0 L0,6 L8,3 z" fill="#fbbf24"/></marker></defs>
  <rect width="860" height="520" fill="#0d1117"/>
  <text x="430" y="30" text-anchor="middle" font-family="monospace" font-size="14" fill="#ffffff">rl_matcher.py — flow</text>
  <rect x="30" y="70" width="160" height="44" rx="7" fill="#1f2937" stroke="#6b7280" stroke-width="1.5"/>
  <text x="110" y="85" text-anchor="middle" font-family="monospace" font-size="11" font-weight="bold" fill="#e5e7eb">quark input</text>
  <text x="110" y="102" text-anchor="middle" font-family="monospace" font-size="9" fill="#9ca3af">comma-separated CLI</text>
  <line x1="190" y1="92" x2="240" y2="92" stroke="#6b7280" stroke-width="1.5"  marker-end="url(#arr)"/>
  <rect x="240" y="70" width="160" height="44" rx="7" fill="#1e3a8a" stroke="#93c5fd" stroke-width="1.5"/>
  <text x="320" y="85" text-anchor="middle" font-family="monospace" font-size="11" font-weight="bold" fill="#e5e7eb">overlap filter</text>
  <text x="320" y="102" text-anchor="middle" font-family="monospace" font-size="9" fill="#9ca3af">input ∩ rule keys</text>
  <line x1="400" y1="92" x2="450" y2="92" stroke="#6b7280" stroke-width="1.5"  marker-end="url(#arr)"/>
  <rect x="450" y="70" width="160" height="44" rx="7" fill="#134e4a" stroke="#6ee7b7" stroke-width="1.5"/>
  <text x="530" y="85" text-anchor="middle" font-family="monospace" font-size="11" font-weight="bold" fill="#e5e7eb">candidates</text>
  <text x="530" y="102" text-anchor="middle" font-family="monospace" font-size="9" fill="#9ca3af">triangles with match</text>
  <line x1="610" y1="92" x2="660" y2="92" stroke="#6b7280" stroke-width="1.5"  marker-end="url(#arr)"/>
  <rect x="660" y="70" width="170" height="44" rx="7" fill="#3b0764" stroke="#c4b5fd" stroke-width="1.5"/>
  <text x="745" y="85" text-anchor="middle" font-family="monospace" font-size="11" font-weight="bold" fill="#e5e7eb">ε-greedy select</text>
  <text x="745" y="102" text-anchor="middle" font-family="monospace" font-size="9" fill="#9ca3af">explore / exploit</text>
  <line x1="745" y1="114" x2="745" y2="180" stroke="#6b7280" stroke-width="1.5"  marker-end="url(#arr)"/>
  <text x="760" y="150" text-anchor="start" font-family="monospace" font-size="9" fill="#9ca3af">chosen</text>
  <rect x="660" y="180" width="170" height="44" rx="7" fill="#78350f" stroke="#fbbf24" stroke-width="1.5"/>
  <text x="745" y="195" text-anchor="middle" font-family="monospace" font-size="11" font-weight="bold" fill="#e5e7eb">run triangle</text>
  <text x="745" y="212" text-anchor="middle" font-family="monospace" font-size="9" fill="#9ca3af">fire matching rules</text>
  <line x1="660" y1="202" x2="610" y2="202" stroke="#6b7280" stroke-width="1.5"  marker-end="url(#arr)"/>
  <rect x="450" y="180" width="160" height="44" rx="7" fill="#1f2937" stroke="#6b7280" stroke-width="1.5"/>
  <text x="530" y="195" text-anchor="middle" font-family="monospace" font-size="11" font-weight="bold" fill="#e5e7eb">reward</text>
  <text x="530" y="212" text-anchor="middle" font-family="monospace" font-size="9" fill="#9ca3af">coverage + goal bonus</text>
  <line x1="450" y1="202" x2="400" y2="202" stroke="#6b7280" stroke-width="1.5"  marker-end="url(#arr)"/>
  <rect x="240" y="180" width="160" height="44" rx="7" fill="#1e3a8a" stroke="#93c5fd" stroke-width="1.5"/>
  <text x="320" y="195" text-anchor="middle" font-family="monospace" font-size="11" font-weight="bold" fill="#e5e7eb">Q-update</text>
  <text x="320" y="212" text-anchor="middle" font-family="monospace" font-size="9" fill="#9ca3af">Q = Q + α(r - Q)</text>
  <line x1="240" y1="202" x2="190" y2="202" stroke="#6b7280" stroke-width="1.5"  marker-end="url(#arr)"/>
  <rect x="30" y="180" width="160" height="44" rx="7" fill="#134e4a" stroke="#6ee7b7" stroke-width="1.5"/>
  <text x="110" y="195" text-anchor="middle" font-family="monospace" font-size="11" font-weight="bold" fill="#e5e7eb">Q-table</text>
  <text x="110" y="212" text-anchor="middle" font-family="monospace" font-size="9" fill="#9ca3af">state → triangle → score</text>
  <path d="M 110 224 Q 110 290 745 290 Q 745 224 745 224" fill="none" stroke="#6b7280" stroke-width="1.5" stroke-dasharray="4,3" marker-end="url(#arr)"/>
  <text x="430" y="308" text-anchor="middle" font-family="monospace" font-size="9" fill="#4b5563">Q-values inform next selection</text>
  <line x1="530" y1="70" x2="530" y2="330" stroke="#4b5563" stroke-width="1.5" stroke-dasharray="3,3" marker-end="url(#arr)"/>
  <rect x="450" y="330" width="160" height="36" rx="7" fill="#1f2937" stroke="#4b5563" stroke-width="1.5"/>
  <text x="530" y="341" text-anchor="middle" font-family="monospace" font-size="11" font-weight="bold" fill="#e5e7eb">no match</text>
  <text x="530" y="358" text-anchor="middle" font-family="monospace" font-size="9" fill="#9ca3af">print + skip</text>
  <text x="560" y="320" text-anchor="start" font-family="monospace" font-size="9" fill="#4b5563">no overlap</text>
  <rect x="30" y="380" width="780" height="100" rx="7" fill="#111827" stroke="#374151" stroke-width="1.5"/>
  <text x="420" y="430" text-anchor="middle" font-family="monospace" font-size="11" font-weight="bold" fill="#e5e7eb"></text>
  <text x="430" y="400" text-anchor="middle" font-family="monospace" font-size="10" fill="#fde68a">triangles/</text>
  <rect x="50" y="410" width="148" height="52" rx="5" fill="#1f2937" stroke="#374151" stroke-width="1"/>
  <text x="124" y="426" text-anchor="middle" font-family="monospace" font-size="8" fill="#e5e7eb">triangle_grip1</text>
  <text x="124" y="442" text-anchor="middle" font-family="monospace" font-size="8" fill="#6ee7b7">goal: bond+force</text>
  <line x1="124" y1="114" x2="124" y2="410" stroke="#1f2937" stroke-width="0"/>
  <rect x="208" y="410" width="148" height="52" rx="5" fill="#1f2937" stroke="#374151" stroke-width="1"/>
  <text x="282" y="426" text-anchor="middle" font-family="monospace" font-size="8" fill="#e5e7eb">triangle_nav1</text>
  <text x="282" y="442" text-anchor="middle" font-family="monospace" font-size="8" fill="#6ee7b7">goal: loc+sequence</text>
  <line x1="282" y1="114" x2="282" y2="410" stroke="#1f2937" stroke-width="0"/>
  <rect x="366" y="410" width="148" height="52" rx="5" fill="#1f2937" stroke="#374151" stroke-width="1"/>
  <text x="440" y="426" text-anchor="middle" font-family="monospace" font-size="8" fill="#e5e7eb">triangle_energy1</text>
  <text x="440" y="442" text-anchor="middle" font-family="monospace" font-size="8" fill="#6ee7b7">goal: energy+stat full</text>
  <line x1="440" y1="114" x2="440" y2="410" stroke="#1f2937" stroke-width="0"/>
  <rect x="524" y="410" width="148" height="52" rx="5" fill="#1f2937" stroke="#374151" stroke-width="1"/>
  <text x="598" y="426" text-anchor="middle" font-family="monospace" font-size="8" fill="#e5e7eb">triangle_balance1</text>
  <text x="598" y="442" text-anchor="middle" font-family="monospace" font-size="8" fill="#6ee7b7">goal: normal+support</text>
  <line x1="598" y1="114" x2="598" y2="410" stroke="#1f2937" stroke-width="0"/>
  <rect x="682" y="410" width="148" height="52" rx="5" fill="#1f2937" stroke="#374151" stroke-width="1"/>
  <text x="756" y="426" text-anchor="middle" font-family="monospace" font-size="8" fill="#e5e7eb">triangle_obstacle1</text>
  <text x="756" y="442" text-anchor="middle" font-family="monospace" font-size="8" fill="#6ee7b7">goal: loc+normal</text>
  <line x1="756" y1="114" x2="756" y2="410" stroke="#1f2937" stroke-width="0"/>
  <line x1="320" y1="114" x2="320" y2="375" stroke="#374151" stroke-width="1.5" stroke-dasharray="3,3" marker-end="url(#arr)"/>
  <text x="328" y="260" text-anchor="start" font-family="monospace" font-size="9" fill="#374151">loads from</text>
</svg>
