<svg xmlns="http://www.w3.org/2000/svg" width="860" height="580">
  <rect width="860" height="580" fill="#0d1117"/>
  <defs><marker id="arr" markerWidth="8" markerHeight="8" refX="6" refY="3" orient="auto"><path d="M0,0 L0,6 L8,3 z" fill="#6b7280"/></marker></defs>
  <text x="430" y="32" text-anchor="middle" font-family="monospace" font-size="15" font-weight="bold" fill="#ffffff">runner.py — improvement steps</text>
  <rect x="360" y="80" width="140" height="32" rx="6" fill="#4b5563" stroke="#6b7280" stroke-width="1"/>
  <text x="430" y="101" text-anchor="middle" font-family="monospace" font-size="11" fill="#e5e7eb">quark in</text>
  <rect x="360" y="160" width="140" height="32" rx="6" fill="#4b5563" stroke="#6b7280" stroke-width="1"/>
  <text x="430" y="181" text-anchor="middle" font-family="monospace" font-size="11" fill="#e5e7eb">route</text>
  <rect x="360" y="240" width="140" height="32" rx="6" fill="#4b5563" stroke="#6b7280" stroke-width="1"/>
  <text x="430" y="261" text-anchor="middle" font-family="monospace" font-size="11" fill="#e5e7eb">rule match</text>
  <rect x="360" y="320" width="140" height="32" rx="6" fill="#4b5563" stroke="#6b7280" stroke-width="1"/>
  <text x="430" y="341" text-anchor="middle" font-family="monospace" font-size="11" fill="#e5e7eb">actuate</text>
  <rect x="360" y="400" width="140" height="32" rx="6" fill="#4b5563" stroke="#6b7280" stroke-width="1"/>
  <text x="430" y="421" text-anchor="middle" font-family="monospace" font-size="11" fill="#e5e7eb">goal check</text>
  <rect x="360" y="480" width="140" height="32" rx="6" fill="#374151" stroke="#6b7280" stroke-width="1"/>
  <text x="430" y="501" text-anchor="middle" font-family="monospace" font-size="11" fill="#e5e7eb">reset / loop</text>
  <line x1="430" y1="112" x2="430" y2="140" stroke="#6b7280" stroke-width="1.5" marker-end="url(#arr)"/>
  <line x1="430" y1="192" x2="430" y2="220" stroke="#6b7280" stroke-width="1.5" marker-end="url(#arr)"/>
  <line x1="430" y1="272" x2="430" y2="300" stroke="#6b7280" stroke-width="1.5" marker-end="url(#arr)"/>
  <line x1="430" y1="352" x2="430" y2="380" stroke="#6b7280" stroke-width="1.5" marker-end="url(#arr)"/>
  <line x1="430" y1="432" x2="430" y2="460" stroke="#6b7280" stroke-width="1.5" marker-end="url(#arr)"/>
  <path d="M 360 496 Q 60 496 60 80 Q 60 64 360 64" fill="none" stroke="#4b5563" stroke-width="1.5" stroke-dasharray="4,3"/>
  <rect x="170" y="148" width="190" height="48" rx="6" fill="#1e3a8a" stroke="#9ca3af" stroke-width="1"/>
  <text x="180" y="164" font-family="monospace" font-size="10" font-weight="bold" fill="#fde68a">1</text>
  <text x="194" y="164" font-family="monospace" font-size="10" font-weight="bold" fill="#ffffff">multi-triangle routing</text>
  <text x="180" y="182" font-family="monospace" font-size="9" fill="#d1d5db">sense(quark) -> triangle</text>
  <line x1="360" y1="172" x2="360" y2="176" stroke="#9ca3af" stroke-width="1" stroke-dasharray="3,3"/>
  <rect x="620" y="308" width="190" height="48" rx="6" fill="#78350f" stroke="#9ca3af" stroke-width="1"/>
  <text x="630" y="324" font-family="monospace" font-size="10" font-weight="bold" fill="#fde68a">4</text>
  <text x="644" y="324" font-family="monospace" font-size="10" font-weight="bold" fill="#ffffff">actuator confirmation</text>
  <text x="630" y="342" font-family="monospace" font-size="9" fill="#d1d5db">wait for quark back</text>
  <line x1="620" y1="332" x2="500" y2="336" stroke="#9ca3af" stroke-width="1" stroke-dasharray="3,3"/>
  <rect x="620" y="388" width="190" height="48" rx="6" fill="#7f1d1d" stroke="#9ca3af" stroke-width="1"/>
  <text x="630" y="404" font-family="monospace" font-size="10" font-weight="bold" fill="#fde68a">2</text>
  <text x="644" y="404" font-family="monospace" font-size="10" font-weight="bold" fill="#ffffff">escalation</text>
  <text x="630" y="422" font-family="monospace" font-size="9" fill="#d1d5db">stat broken -> orchestrator</text>
  <line x1="620" y1="412" x2="500" y2="416" stroke="#9ca3af" stroke-width="1" stroke-dasharray="3,3"/>
  <rect x="170" y="388" width="190" height="48" rx="6" fill="#134e4a" stroke="#9ca3af" stroke-width="1"/>
  <text x="180" y="404" font-family="monospace" font-size="10" font-weight="bold" fill="#fde68a">3</text>
  <text x="194" y="404" font-family="monospace" font-size="10" font-weight="bold" fill="#ffffff">memory</text>
  <text x="180" y="422" font-family="monospace" font-size="9" fill="#d1d5db">last N quarks buffer</text>
  <line x1="360" y1="412" x2="360" y2="416" stroke="#9ca3af" stroke-width="1" stroke-dasharray="3,3"/>
  <rect x="170" y="468" width="190" height="48" rx="6" fill="#3b0764" stroke="#9ca3af" stroke-width="1"/>
  <text x="180" y="484" font-family="monospace" font-size="10" font-weight="bold" fill="#fde68a">5</text>
  <text x="194" y="484" font-family="monospace" font-size="10" font-weight="bold" fill="#ffffff">unknown fallback</text>
  <text x="180" y="502" font-family="monospace" font-size="9" fill="#d1d5db">-> quark_overlap + combinations</text>
  <line x1="360" y1="492" x2="360" y2="496" stroke="#9ca3af" stroke-width="1" stroke-dasharray="3,3"/>
</svg>
